<?xml version="1.0" standalone="no"?>
<!DOCTYPE svg PUBLIC "-//W3C//DTD SVG 20010904//EN"
 "http://www.w3.org/TR/2001/REC-SVG-20010904/DTD/svg10.dtd">
<svg version="1.0" xmlns="http://www.w3.org/2000/svg"
 width="118.750000pt" height="115.250000pt" viewBox="0 0 475.000000 461.000000"
 preserveAspectRatio="xMidYMid meet">

<g transform="translate(0.000000,461.000000) scale(0.100000,-0.100000)"
fill="#000000" stroke="none">
<path d="M2160 4540 c-490 -50 -909 -228 -1275 -541 -367 -315 -633 -764 -730
-1235 -47 -227 -59 -527 -30 -751 118 -914 785 -1668 1671 -1892 216 -55 298
-65 549 -65 254 -1 368 12 572 65 834 214 1478 898 1643 1743 56 288 54 615
-5 899 -69 334 -229 672 -446 942 -148 184 -382 390 -589 518 -238 147 -555
259 -850 302 -129 19 -396 27 -510 15z m1163 -492 c45 -35 16 -118 -42 -118
-23 0 -43 -21 -146 -157 -65 -87 -173 -230 -240 -318 -67 -88 -141 -185 -164
-215 -67 -89 -62 -96 99 -147 l135 -43 19 25 c25 36 68 55 118 55 59 0 105
-30 129 -86 23 -51 19 -86 -14 -145 l-21 -36 74 -127 c41 -69 80 -126 87 -126
24 0 73 -30 73 -45 0 -16 10 -17 335 -45 127 -11 250 -22 275 -25 40 -4 48 -2
73 25 39 41 87 41 128 1 39 -40 39 -82 0 -122 -39 -38 -83 -39 -120 -1 -15 15
-30 32 -32 39 -3 8 -112 21 -328 41 l-323 29 -24 -24 c-13 -12 -28 -23 -34
-23 -5 0 -10 -11 -10 -24 0 -14 -29 -246 -65 -517 -64 -488 -64 -493 -45 -511
59 -55 12 -143 -66 -124 -56 14 -70 105 -19 128 20 9 25 21 31 67 10 88 10 88
54 424 23 175 41 320 39 321 -2 2 -83 -7 -179 -20 -96 -14 -339 -46 -539 -73
-358 -48 -364 -50 -385 -76 -14 -17 -36 -30 -59 -34 -34 -6 -53 -28 -277 -316
-159 -205 -238 -315 -234 -325 3 -8 9 -34 11 -57 l6 -42 286 -162 c157 -89
372 -211 476 -270 105 -59 237 -134 295 -167 103 -59 105 -60 125 -42 53 49
119 46 165 -7 61 -69 26 -172 -63 -188 -71 -14 -136 39 -137 110 -1 28 -11 35
-178 129 -171 96 -555 313 -852 482 -127 73 -147 81 -161 69 -8 -8 -29 -17
-45 -21 -28 -5 -31 -10 -63 -132 -19 -70 -56 -205 -82 -301 -44 -157 -47 -175
-34 -194 19 -28 19 -67 -1 -95 -21 -31 -87 -31 -108 0 -31 44 -6 118 39 118 8
0 15 2 15 4 0 2 36 136 80 297 44 160 80 296 80 302 0 5 -11 22 -25 39 -38 45
-35 101 8 142 32 30 32 32 24 84 -7 42 -14 55 -32 62 -53 20 -71 87 -34 133
l20 27 -23 79 c-22 77 -24 80 -57 86 -40 8 -101 64 -101 93 0 25 -4 26 -157
47 -122 17 -122 17 -149 -4 -29 -23 -55 -26 -84 -11 -16 8 -47 -5 -164 -67
-123 -66 -146 -82 -146 -101 0 -13 -12 -34 -26 -48 -21 -22 -31 -25 -62 -20
-20 3 -42 7 -48 8 -12 2 -18 70 -9 99 4 10 19 26 35 34 25 13 34 13 62 2 31
-13 36 -11 108 28 41 23 105 56 141 75 57 29 68 39 75 69 16 66 103 78 131 19
12 -23 22 -26 100 -36 207 -27 200 -27 207 -4 16 51 117 79 164 46 21 -15 26
-12 132 72 101 81 109 89 103 115 -8 39 12 82 46 102 36 21 61 21 104 1 l35
-17 323 168 c351 182 362 188 352 199 -4 4 0 4 8 1 14 -5 387 180 411 203 4 4
4 22 0 40 -7 33 -9 34 -135 75 -105 34 -131 39 -145 29 -71 -51 -146 -28 -158
49 -5 30 -1 41 25 71 l30 35 -41 120 -42 121 -39 5 c-112 15 -142 158 -45 217
41 25 64 25 111 1 l37 -19 326 151 c271 125 328 155 336 176 5 14 14 31 20 38
13 17 69 17 91 1z m-1558 -548 c3 -6 -1 -7 -9 -4 -18 7 -21 14 -7 14 6 0 13
-4 16 -10z"/>
<path d="M3045 3865 c-77 -36 -216 -100 -308 -143 -164 -74 -168 -77 -162
-103 7 -29 -13 -87 -37 -106 -13 -11 -9 -30 30 -144 36 -104 50 -133 68 -141
13 -6 26 -9 28 -7 5 6 442 583 494 652 23 31 39 57 35 57 -5 0 -71 -29 -148
-65z"/>
<path d="M2854 2836 c-65 -34 -314 -163 -551 -285 -390 -201 -433 -226 -433
-248 0 -73 -79 -125 -141 -92 -24 12 -18 15 -146 -88 l-90 -73 5 -53 c4 -49 2
-57 -28 -91 -31 -35 -32 -39 -22 -74 6 -20 16 -56 22 -79 8 -31 16 -43 29 -43
10 0 30 -11 45 -25 36 -33 36 -92 1 -125 -20 -18 -24 -31 -20 -52 3 -15 8 -41
11 -58 4 -23 11 -30 28 -30 18 0 73 66 262 310 224 291 239 313 236 348 -5 70
72 110 122 63 18 -17 28 -18 81 -10 33 5 280 38 550 74 269 37 491 67 492 68
1 2 7 44 14 94 11 88 11 92 -11 121 -17 23 -21 38 -16 59 4 15 7 33 8 38 1 6
-31 67 -71 135 l-72 125 -58 0 c-47 0 -64 5 -92 27 l-35 26 -120 -62z"/>
</g>
</svg>
