<?xml version="1.0" standalone="no"?>
<!DOCTYPE svg PUBLIC "-//W3C//DTD SVG 20010904//EN"
 "http://www.w3.org/TR/2001/REC-SVG-20010904/DTD/svg10.dtd">
<svg version="1.0" xmlns="http://www.w3.org/2000/svg"
 width="70.000000pt" height="70.000000pt" viewBox="0 0 260.000000 258.000000"
 preserveAspectRatio="xMidYMid meet">

<g transform="translate(0.000000,258.000000) scale(0.100000,-0.100000)"
fill="#000000" stroke="none">
<path d="M1230 2309 c-253 -30 -487 -151 -675 -351 -135 -143 -211 -273 -259
-441 -99 -344 -30 -710 185 -982 79 -101 203 -212 314 -282 211 -134 521 -192
781 -148 577 98 984 598 950 1167 -15 260 -114 487 -296 681 -261 278 -606
401 -1000 356z m-160 -59 c0 -5 -4 -10 -10 -10 -5 0 -10 5 -10 10 0 6 5 10 10
10 6 0 10 -4 10 -10z m959 -324 c-2 -2 -26 -6 -54 -9 -32 -4 -43 -3 -30 3 19
8 93 14 84 6z m-131 -38 c15 -15 15 -45 0 -54 -6 -4 -22 -8 -35 -10 -17 -2
-25 4 -29 22 -11 42 34 72 64 42z m193 -5 c13 -16 12 -17 -3 -4 -10 7 -18 15
-18 17 0 8 8 3 21 -13z m-34 -30 c2 -6 -3 -13 -12 -16 -10 -5 -15 0 -15 14 0
21 21 22 27 2z m151 10 c-10 -2 -26 -2 -35 0 -10 3 -2 5 17 5 19 0 27 -2 18
-5z m42 -2 c0 -6 -4 -12 -8 -15 -5 -3 -9 1 -9 9 0 8 4 15 9 15 4 0 8 -4 8 -9z
m-429 -75 c-12 -12 -21 -29 -21 -37 0 -9 -13 -33 -30 -55 -16 -21 -30 -46 -30
-54 0 -9 5 -7 16 8 27 39 83 18 69 -27 -8 -27 -34 -34 -61 -16 -24 15 -24 15
-24 -19 0 -45 -9 -66 -27 -66 -13 0 -13 2 -2 17 8 9 14 28 14 43 l0 27 -40
-32 c-111 -90 -285 -143 -519 -158 -36 -2 -39 -5 -41 -30 -1 -25 -18 -46 -37
-47 -15 0 -39 34 -35 50 3 12 -1 16 -17 14 -11 -2 -66 -11 -121 -19 -56 -9
-151 -17 -212 -18 -101 -2 -114 0 -142 21 -16 12 -35 22 -40 22 -6 0 -18 12
-28 28 -9 15 -18 29 -19 31 -2 2 -10 -4 -19 -13 -20 -20 -29 -20 -49 -1 -8 8
-19 15 -25 15 -17 0 -13 -20 4 -26 11 -5 13 -10 5 -19 -8 -9 -3 -16 20 -25 36
-15 38 -26 8 -36 -21 -6 -20 -7 7 -18 21 -9 26 -14 16 -20 -18 -12 5 -26 42
-26 15 0 27 -4 27 -9 0 -16 -58 -52 -65 -41 -3 5 6 12 20 16 34 8 32 18 -7 29
-18 6 -33 17 -33 25 0 8 -8 18 -17 22 -22 9 -24 28 -3 28 21 0 19 17 -4 23
-25 6 -56 68 -39 79 10 6 10 12 0 29 -9 14 -10 24 -4 28 6 3 12 17 15 31 l4
25 2 -27 c0 -15 -4 -30 -9 -33 -8 -5 -7 -12 1 -22 11 -13 14 -13 25 2 9 12 22
16 38 13 24 -5 25 -4 11 23 -8 15 -24 31 -36 34 -11 4 -18 9 -16 12 14 14 52
-26 80 -85 26 -54 41 -72 81 -97 47 -28 55 -30 140 -28 50 1 174 13 276 27
102 14 233 30 292 36 139 14 247 43 328 87 66 35 140 98 140 118 0 6 11 26 25
45 14 19 25 39 25 46 0 7 9 34 21 61 18 42 22 46 31 30 8 -15 5 -24 -11 -41z
m459 34 c0 -5 -2 -10 -4 -10 -3 0 -8 5 -11 10 -3 6 -1 10 4 10 6 0 11 -4 11
-10z m0 -45 c0 -23 -34 -65 -53 -65 -5 0 2 9 17 21 29 23 35 45 9 35 -15 -6
-15 -4 2 14 23 26 25 25 25 -5z m-1150 -26 c0 -5 -7 -9 -15 -9 -15 0 -20 12
-9 23 8 8 24 -1 24 -14z m810 -57 c-6 -27 -10 -56 -9 -64 5 -37 -4 -61 -33
-93 -26 -28 -43 -37 -83 -42 -46 -6 -49 -5 -36 10 7 10 19 17 27 17 7 0 18 8
23 18 6 9 11 12 11 5 0 -6 -10 -19 -22 -27 -16 -12 -18 -16 -7 -16 9 0 19 3
23 8 4 4 13 7 19 7 6 0 17 11 24 25 7 14 13 21 13 16 0 -5 7 -3 15 4 10 8 15
30 15 64 0 50 17 132 26 123 2 -2 0 -27 -6 -55z m209 49 c8 -5 12 -18 8 -30
-3 -12 0 -21 6 -21 7 -1 -17 -12 -52 -26 -35 -13 -71 -30 -80 -37 -12 -10 -13
-9 -7 2 5 7 27 22 50 32 22 10 36 19 29 19 -18 0 -26 39 -13 55 14 17 38 19
59 6z m-138 -148 c-15 -29 -32 -162 -35 -281 -2 -60 -9 -119 -15 -131 -7 -12
-9 -25 -6 -30 3 -5 2 -11 -2 -13 -5 -1 -22 -25 -40 -53 -24 -37 -29 -53 -21
-62 8 -10 7 -12 -6 -7 -11 4 -16 1 -16 -14 0 -11 -7 -23 -16 -26 -21 -8 -15 8
29 77 66 102 81 152 79 262 -2 89 36 295 54 295 2 0 1 -8 -5 -17z m-190 -36
c-10 -9 -11 -8 -5 6 3 10 9 15 12 12 3 -3 0 -11 -7 -18z m-58 -24 c-5 -15 -3
-16 8 -5 19 17 33 15 15 -3 -15 -16 -46 -20 -46 -7 0 7 21 32 27 32 1 0 0 -8
-4 -17z m-813 -47 c0 -3 -4 -8 -10 -11 -5 -3 -10 -1 -10 4 0 6 5 11 10 11 6 0
10 -2 10 -4z m560 -81 c23 -28 -9 -72 -45 -59 -36 14 -24 74 15 74 10 0 23 -7
30 -15z m390 -4 c12 -23 5 -47 -16 -55 -21 -8 -42 3 -49 25 -14 42 44 68 65
30z m-1000 -46 c23 -28 -9 -72 -45 -59 -36 14 -24 74 15 74 10 0 23 -7 30 -15z
m-127 -117 c-35 -39 -42 -62 -38 -134 2 -52 0 -73 -12 -86 -13 -15 -14 -18 -2
-18 9 -1 6 -7 -8 -19 -13 -11 -23 -24 -23 -30 0 -6 -26 -24 -57 -40 -69 -34
-104 -68 -84 -80 10 -6 10 -10 1 -16 -6 -4 -16 -19 -22 -33 -6 -17 -12 -22
-15 -14 -3 7 2 21 12 32 10 11 12 19 6 21 -23 8 36 69 91 96 31 15 54 32 51
36 -3 5 3 15 13 22 14 11 15 14 5 15 -10 0 -5 11 15 31 16 18 24 33 18 36 -14
5 -9 115 6 144 11 19 10 20 -12 14 -22 -7 -22 -6 -3 7 65 43 89 50 58 16z
m-260 5 c-7 -2 -19 -2 -25 0 -7 3 -2 5 12 5 14 0 19 -2 13 -5z m42 -3 c-3 -5
-10 -10 -16 -10 -5 0 -9 5 -9 10 0 6 7 10 16 10 8 0 12 -4 9 -10z m77 -2 c-19
-19 -14 -31 9 -25 12 3 18 2 13 -2 -5 -5 -21 -11 -37 -15 -26 -6 -27 -5 -15
16 12 22 28 38 38 38 2 0 -1 -5 -8 -12z m-39 -20 c-2 -5 -25 -8 -51 -8 -26 0
-42 4 -35 8 15 9 92 9 86 0z m97 -3 c0 -8 -4 -15 -10 -15 -5 0 -10 7 -10 15 0
8 5 15 10 15 6 0 10 -7 10 -15z m1371 -98 l84 -33 3 -41 c3 -47 -36 -153 -71
-191 -32 -34 -75 -55 -103 -48 -36 9 -32 50 9 89 17 18 37 41 44 52 10 16 10
14 2 -13 -6 -18 -24 -40 -40 -49 -18 -11 -29 -26 -29 -39 0 -34 34 -39 76 -14
l35 22 -21 20 c-24 23 -23 46 2 62 13 8 23 8 37 -1 17 -10 20 -7 35 30 19 50
21 98 5 114 -6 6 -45 22 -85 35 -41 13 -74 26 -74 31 0 10 -4 11 91 -26z
m-241 -2 c14 -17 5 -51 -16 -59 -22 -8 -54 11 -54 32 0 38 46 56 70 27z m-117
-49 c7 3 1 -3 -13 -14 -30 -25 -36 -22 -19 10 8 14 14 18 17 10 2 -6 9 -9 15
-6z m-583 -10 c0 -8 6 -16 13 -19 6 -2 9 -7 6 -11 -4 -4 -13 0 -22 8 -13 13
-17 13 -26 2 -18 -21 -54 -28 -47 -9 3 8 6 19 6 24 0 6 5 7 10 4 6 -4 8 -11 5
-16 -4 -5 -2 -9 2 -9 5 0 14 9 21 20 14 23 32 26 32 6z m74 -35 c-3 -3 -15 6
-27 18 l-22 24 27 -19 c14 -10 24 -21 22 -23z m-306 17 c29 -29 -3 -82 -38
-61 -13 9 -21 9 -30 0 -7 -7 -3 7 9 31 22 43 38 51 59 30z m347 -8 c14 -16 20
-17 26 -8 7 10 11 10 21 0 9 -9 9 -12 0 -12 -7 0 -9 -7 -5 -17 4 -11 -9 -4
-33 17 -21 19 -41 36 -43 38 -2 1 0 2 6 2 5 0 18 -9 28 -20z m249 -15 c20 -9
46 -25 57 -36 12 -12 24 -17 28 -13 11 16 58 14 58 -3 0 -10 -7 -13 -24 -8
-17 4 -23 1 -23 -12 0 -13 -10 -8 -38 20 -25 24 -46 36 -62 35 -45 -3 -80 2
-80 11 0 4 12 6 26 3 19 -3 25 -1 20 7 -9 14 -6 14 38 -4z m196 -10 c-13 -14
-18 -25 -12 -25 8 0 9 -7 2 -25 -8 -22 -7 -25 11 -25 16 0 19 -4 14 -20 -4
-11 -8 -35 -10 -52 -4 -30 -15 -52 -15 -30 0 7 -7 9 -17 5 -15 -6 -14 -2 3 23
12 16 24 37 28 48 5 15 2 18 -19 14 -27 -6 -32 1 -13 20 10 10 10 15 -2 22
-12 8 -10 14 15 40 16 16 31 30 34 30 2 0 -6 -11 -19 -25z m-293 -4 c1 -17 -2
-18 -40 -9 -23 5 -44 12 -47 15 -3 3 10 2 29 -2 23 -5 31 -4 27 4 -4 6 0 11
11 11 11 0 19 -8 20 -19z m611 -7 c-13 -7 -24 -9 -26 -3 -2 5 -18 -1 -35 -13
-26 -19 -30 -19 -24 -4 6 14 3 16 -13 11 -11 -4 -20 -4 -20 0 0 11 42 21 91
21 45 0 47 -1 27 -12z m50 -9 c-3 -3 -9 2 -12 12 -6 14 -5 15 5 6 7 -7 10 -15
7 -18z m-1029 -34 c-27 -37 -99 -96 -99 -81 0 6 -24 -2 -52 -17 -29 -15 -64
-29 -78 -31 -13 -2 -46 -12 -72 -24 -46 -19 -47 -22 -61 -82 l-14 -61 30 -27
c16 -16 33 -28 38 -28 18 0 8 29 -17 49 -24 19 -26 25 -20 65 4 24 14 50 21
56 10 8 15 9 15 2 0 -6 -4 -13 -9 -16 -5 -3 -12 -22 -16 -42 -5 -31 -2 -41 21
-65 33 -35 27 -51 -24 -68 -45 -15 -95 -3 -106 26 -4 10 2 8 20 -6 32 -25 72
-27 81 -5 6 15 -13 37 -38 46 -4 2 -4 21 1 43 5 22 11 55 14 74 2 19 12 41 22
50 9 9 14 10 10 4 -4 -7 -4 -13 0 -13 11 0 136 46 197 73 31 15 61 27 65 27 4
1 12 11 19 23 7 12 12 18 13 13 0 -16 50 36 51 53 0 10 3 11 5 4 3 -7 -5 -26
-17 -42z m821 3 c0 -3 -12 -30 -26 -60 -14 -30 -31 -91 -39 -135 l-12 -80 26
-18 c30 -22 37 -56 14 -65 -9 -4 -18 -4 -21 -1 -3 3 0 5 6 5 7 0 12 5 12 11 0
5 -6 7 -12 4 -7 -4 -5 0 5 9 18 14 17 15 -15 32 -18 10 -41 18 -51 19 -19 2
-37 21 -37 41 0 19 28 37 49 31 17 -4 22 3 32 52 6 31 20 73 30 93 11 21 19
44 19 53 0 8 5 15 10 15 6 0 10 -3 10 -6z m-1100 -78 c0 -2 -8 -10 -17 -17
-16 -13 -17 -12 -4 4 13 16 21 21 21 13z m-330 -22 c0 -8 -4 -12 -10 -9 -5 3
-10 10 -10 16 0 5 5 9 10 9 6 0 10 -7 10 -16z m1890 -44 c0 -5 -4 -10 -10 -10
-5 0 -10 5 -10 10 0 6 5 10 10 10 6 0 10 -4 10 -10z m-850 -4 c0 -3 -4 -8 -10
-11 -5 -3 -10 -1 -10 4 0 6 5 11 10 11 6 0 10 -2 10 -4z m230 -22 c-6 -14 -7
-36 -4 -50 3 -13 2 -24 -4 -24 -5 0 -13 16 -17 36 -5 28 -2 39 12 50 24 18 24
18 13 -12z m-925 6 c-3 -5 -14 -10 -23 -10 -15 0 -15 2 -2 10 20 13 33 13 25
0z m-198 -20 c-4 -14 0 -20 12 -20 40 0 56 -51 21 -70 -11 -6 -21 -21 -21 -33
-2 -21 -2 -21 -6 2 -3 13 -11 31 -19 39 -10 9 -13 25 -9 46 4 17 7 37 7 44 1
6 6 12 11 12 5 0 7 -9 4 -20z m1353 -10 c0 -5 -4 -10 -10 -10 -5 0 -10 5 -10
10 0 6 5 10 10 10 6 0 10 -4 10 -10z m-227 -109 c4 -29 2 -40 -4 -30 -8 13
-14 88 -5 78 2 -2 6 -24 9 -48z"/>
</g>
</svg>
